<?xml version="1.0" encoding="UTF-8" standalone="no"?>
<svg viewBox="-10 -10 380 380" xmlns="http://www.w3.org/2000/svg">
<defs>
<filter id="filter3505">
<feGaussianBlur stdDeviation="3.12419"/>
</filter>
<filter id="filter3262">
<feGaussianBlur stdDeviation="5.18758"/>
</filter>
<linearGradient gradientUnits="userSpaceOnUse" id="linearGradient3270" x1="514.01543" x2="514.74651" y1="420.84155" y2="325.79891">
<stop offset="0" stop-color="#cbcbcb"/>
<stop offset="1" stop-color="#fff"/>
</linearGradient>
<radialGradient cx="444.29321" cy="238.85867" gradientTransform="matrix(1.39151,8.38873e-2,-.17298,2.86921,-539.292,-602.629)" gradientUnits="userSpaceOnUse" id="radialGradient3425" r="156.82831">
<stop offset="0"/>
<stop offset="1" stop-opacity="0"/>
</radialGradient>
<radialGradient cx="78.52151" cy="21.26202" gradientTransform="matrix(-2.26649e-8,2.00006,-2.23085,-3.42986e-8,216.547,-239.735)" gradientUnits="userSpaceOnUse" id="radialGradient2415" r="182.1232">
<stop offset="0" stop-color="#fff"/>
<stop offset=".5" stop-color="#fff" stop-opacity=".49804"/>
<stop offset="1" stop-color="#fff" stop-opacity="0"/>
</radialGradient>
</defs>
<path d="m351.23759,127.62191a156.82831,156.82831 0 1,1 -313.65661,0 156.82831,156.82831 0 1,1 313.65661,0z" filter="url(#filter3505)" opacity=".58704" transform="matrix(1.12857,0,0,1.14812,-40.43306,33.53245)"/>
<path d="m351.23759,127.62191a156.82831,156.82831 0 1,1 -313.65661,0 156.82831,156.82831 0 1,1 313.65661,0z" fill="#fff" transform="matrix(1.10902,0,0,1.10902,-41.67806,34.74545)"/>
<path d="m351.23759,127.62191a156.82831,156.82831 0 1,1 -313.65661,0 156.82831,156.82831 0 1,1 313.65661,0z" fill="#b3b3b3" transform="matrix(1.01126,0,0,1.01126,-22.67306,47.22145)"/>
<path d="m351.23759,99.43618a182.1232,182.1232 0 1,1 -364.24639,0 182.1232,182.1232 0 1,1 364.24639,0z" fill="#d40000" transform="matrix(.84921,0,0,.84921,30.31294,90.99845)"/>
<g opacity=".7362">
<path d="m351.23759,127.62191a156.82831,156.82831 0 1,1 -313.65661,0 156.82831,156.82831 0 1,1 313.65661,0z" fill="url(#radialGradient3425)" transform="matrix(-.08569,-.95529,.95529,-.08569,68.66894,372.93345)"/>
</g>
<g opacity=".80921">
<path d="m351.23759,99.43618c0,100.53201-81.59119,182.1232-182.12319,182.1232s-182.1232-81.59119-182.1232-182.1232 81.59119-182.1232 182.1232-182.1232 182.12319,81.59119 182.12319,182.1232z" fill="url(#radialGradient2415)" transform="matrix(.6746,0,0,.51984,59.84094,67.54545)"/>
</g>
<path d="m300.96794,122.86555 102.17503,169.27956c6.01228,9.64619 8.24209,14.23831 7.99968,18.52772 0,0 1.47431,10.92731-7.5328,16.21654-4.55281,2.67353-13.75402,1.91124-13.75402,1.91124l-210.20489-.3219c-7.48285-.07027-22.46152,1.46593-26.39025-14.17379-.60526-7.2365 1.98171-13.70351 7.76091-22.15981l102.17504-169.27956c7.4691-12.3745 29.57913-12.66742 37.7713,0z" filter="url(#filter3262)" opacity=".66397" transform="matrix(1.051,0,0,1.04072,-122.70906,-74.31955)"/>
<g transform="translate(-355.48306,-180.52355)">
<path d="m545.96616,238.6947 98.7014,166.40712c5.80788,9.48251 7.96188,13.99671 7.72771,18.21333 0,0 1.42419,10.74189-7.2767,15.94137-4.39803,2.62817-13.28643,1.87881-13.28643,1.87881l-203.05857-.31644c-7.22846-.06907-21.6979,1.44106-25.49307-13.93328-.58468-7.1137 1.91434-13.47098 7.49707-21.78379l98.7014-166.40712c7.21517-12.16452 28.57353-12.45247 36.48719,0z" fill="url(#linearGradient3270)" stroke="#ccc" stroke-width="5.4"/>
<path d="m527.31889,248.82916c-9.47908,0-13.95532,2.36977-13.95532,7.89924 0,4.21292.78992,10.26902 1.84315,21.06464 3.68631,30.01708 5.26617,60.56087 7.63594,94.26427 1.31654,1.84315 7.89924,1.84315 9.21578,0 2.36977-33.7034 4.21293-64.24719 7.63593-94.26427 1.31654-10.79562 1.84316-16.85172 1.84316-21.06464 0-5.52947-4.47625-7.89924-13.95533-7.89924h-.26331m.26331,178.25952c8.68916,0 15.00856-6.05609 15.00856-15.53517 0-8.68916-6.3194-15.27187-15.00856-15.27187-8.42585,0-14.74525,6.58271-14.74525,15.27187 0,9.47908 6.3194,15.53517 14.48194,15.53517h.26331"/>
</g>
</svg>