<?xml version="1.0" encoding="UTF-8"?>
<!-- Generator: Adobe Illustrator 15.1.0, SVG Export Plug-In . SVG Version: 6.00 Build 0)  -->
<!DOCTYPE svg PUBLIC "-//W3C//DTD SVG 1.1//EN" "http://www.w3.org/Graphics/SVG/1.1/DTD/svg11.dtd">
<svg version="1.1" id="svg1306" xmlns:svg="http://www.w3.org/2000/svg" sodipodi:version="0.32" xmlns:inkscape="http://www.inkscape.org/namespaces/inkscape" xmlns:dc="http://purl.org/dc/elements/1.1/" inkscape:version="0.48.0 r9654" xmlns:cc="http://creativecommons.org/ns#" inkscape:output_extension="org.inkscape.output.svg.inkscape" xmlns:rdf="http://www.w3.org/1999/02/22-rdf-syntax-ns#" xmlns:sodipodi="http://sodipodi.sourceforge.net/DTD/sodipodi-0.dtd" sodipodi:docname="Emblem-paragraph.svg" xmlns="http://www.w3.org/2000/svg" xmlns:xlink="http://www.w3.org/1999/xlink" x="0px" y="0px" width="471.146px" height="534.373px" viewBox="-49.555 -57.543 471.146 534.373" enable-background="new -49.555 -57.543 471.146 534.373" xml:space="preserve">
<sodipodi:namedview fill="#ef2929" id="base" borderopacity="0.21568627" bordercolor="#666666" inkscape:window-maximized="1" inkscape:pageopacity="0.0" inkscape:pageshadow="2" inkscape:zoom="8" inkscape:cx="40.887178" inkscape:cy="17.538253" inkscape:window-width="1680" inkscape:window-y="0" inkscape:showpageshadow="false" inkscape:window-x="1439" inkscape:window-height="1028" inkscape:grid-bbox="true" inkscape:document-units="px" showgrid="false" inkscape:current-layer="layer1" pagecolor="#ffffff">
	
		<inkscape:grid type="xygrid" color="#0000ff" originy="0px" spacingx="1px" empopacity="0.4" empspacing="4" empcolor="#0000ff" opacity="0.2" spacingy="1px" id="GridFromPre046Settings" originx="0px">
		</inkscape:grid>
</sodipodi:namedview>
<g id="layer2" inkscape:label="Shadow" inkscape:groupmode="layer">
	
		<radialGradient id="path6548_1_" cx="154.7139" cy="-2496.1768" r="187.3979" gradientTransform="matrix(1.0706 0 0 -0.2625 27.4687 -253.119)" gradientUnits="userSpaceOnUse">
		<stop offset="0" style="stop-color:#000000"/>
		<stop offset="1" style="stop-color:#000000;stop-opacity:0"/>
	</radialGradient>
	
		<path id="path6548" sodipodi:cy="40" sodipodi:ry="8.5714283" sodipodi:rx="17.142857" sodipodi:cx="23.857143" sodipodi:type="arc" inkscape:r_cy="true" inkscape:r_cx="true" opacity="0.6" fill="url(#path6548_1_)" enable-background="new    " d="   M393.719,402.128c0,27.169-89.812,49.191-200.612,49.191c-110.8,0-200.623-22.012-200.628-49.191l0,0   c-0.006-27.168,89.812-49.192,200.606-49.192C303.896,352.936,393.719,374.948,393.719,402.128L393.719,402.128z"/>
</g>
<g id="layer1" inkscape:label="Layer 1" inkscape:groupmode="layer">
	<g id="g4006">
		
			<path id="path1314" sodipodi:cy="23.928572" sodipodi:ry="23.357143" sodipodi:rx="23.357143" sodipodi:cx="23.5" sodipodi:type="arc" inkscape:r_cy="true" inkscape:r_cx="true" fill="#F57900" stroke="#8F5902" stroke-width="1.0864" d="    M421.048,178.029c0,129.803-105.228,235.03-235.03,235.03c-129.802,0-235.029-105.228-235.029-235.03    C-49.012,48.228,56.216-57,186.018-57C315.82-57,421.048,48.228,421.048,178.029z"/>
		
			<path id="path3560" sodipodi:cy="26.635273" sodipodi:ry="23.991123" sodipodi:rx="23.991123" sodipodi:cx="25.910412" sodipodi:type="arc" inkscape:r_cy="true" inkscape:r_cx="true" opacity="0.35" fill="none" stroke="#FFFFFF" stroke-width="1.1703" enable-background="new    " d="    M410.116,178.029c0,123.771-100.327,224.099-224.099,224.099c-123.765,0-224.098-100.327-224.098-224.099    c0-123.765,100.333-224.098,224.098-224.098C309.789-46.069,410.116,54.265,410.116,178.029z"/>
		<path id="path3684" opacity="0.25" fill="#FFFFFF" enable-background="new    " d="M186.018-40.603    c-120.749,0-218.632,97.883-218.632,218.632c0,18.427,2.536,36.19,6.832,53.292c35.026,52.396,144.882-1.312,221.023-61.149    c87.539-68.791,195.041,91.383,209.068,15.715c0.084-2.609,0.341-5.226,0.341-7.857C404.65,57.28,306.768-40.603,186.018-40.603z"/>
	</g>
	<g enable-background="new    ">
		<path fill="#FFFFFF" d="M217.442,227.217h-69.368v-9.415c0-10.503,2.113-19.822,6.341-27.959    c4.228-8.134,13.13-18.478,26.71-31.034l12.298-11.145c7.302-6.659,12.649-12.938,16.045-18.831    c3.394-5.892,5.093-11.785,5.093-17.679c0-8.966-3.074-15.979-9.224-21.041c-6.149-5.06-14.733-7.591-25.749-7.591    c-10.377,0-21.588,2.146-33.628,6.438c-12.043,4.293-24.596,10.665-37.663,19.119V47.742c15.499-5.381,29.655-9.35,42.467-11.914    c12.809-2.561,25.173-3.843,37.087-3.843c31.256,0,55.083,6.374,71.482,19.119c16.396,12.749,24.596,31.355,24.596,55.822    c0,12.556-2.498,23.797-7.494,33.724c-4.996,9.929-13.517,20.594-25.557,31.994l-12.298,10.953    c-8.713,7.944-14.412,14.315-17.102,19.119c-2.69,4.804-4.036,10.089-4.036,15.854V227.217z M148.074,255.656h69.368v68.408    h-69.368V255.656z"/>
	</g>
</g>
<g id="layer3" inkscape:label="Error Box" inkscape:groupmode="layer">
</g>
<g id="layer4" inkscape:label="Glossy Shine" inkscape:groupmode="layer">
</g>
</svg>